<svg viewBox="0 0 159 155" xmlns="http://www.w3.org/2000/svg"><g fill="none" fill-rule="evenodd"><path d="m155.88 25.03l-15.745-4.26h-21.895l-20.21 2.531-3.253 1.15 4.254-10.745-11.836 7.339-27.957 22.24-15.12 23.02 2.982 10.653 12.405 1.16-1.822 4.282 19.999 11.335c0 0-17.942 9.612-18.443 9.575-.501-.036 22.333 14.347 22.333 14.347l3.846 16.09-1.451 14.346 23.543-22.399 23.15-31.914 16.04-34.409 9.14-26.986.039-7.356" fill="#fefefe"/><g fill="#25b3a8"><path d="m155.72 25.891l1.686-8.647-33.15-9.529-33.32-5.823-8.677.378-19.707.858-25.21 4.412-35.966 9.704 11.283 43.937 17.454 36.703 1.943 3.353 6.873-9.353c0 0 5.113-7.48 5.818-7.357.705.123 10.894-5.348 10.894-5.348l-8.602-3.352-1.233-7.235 3.349-11.646 11.766-15.175 14.327-12.175 23.801-15.528-4.43 12.529 24.18-5.118 24.716.177 12.208 4.235"/><path d="m39.598 112.97l27.16 31.51 12.825 7.75 5.19-9.35v-16.59l-5.4-12.51-13.11-6.54-11.81-1.94-9 .88z"/></g><path d="m102.15 70.46c0 0 15.556-18.22 37.522-16.571 21.967 1.65-15.763-1.838-15.763-1.838l-9.168 3.663-15.867 8.294 3.276 6.452" fill="#d9d9d9"/><g transform="translate(75 61)"><path d="m24.69 8.594c1.328 3.01-1.753 7.283-6.881 9.552-5.128 2.268-10.363 1.669-11.69-1.338-1.328-3.01 3.815-6.811 8.943-9.08 5.128-2.268 8.301-2.142 9.628.865" fill="#f1c40f"/><path d="m24.69 8.594c1.328 3.01-1.753 7.283-6.881 9.552-5.128 2.268-10.363 1.669-11.69-1.338-1.328-3.01 3.815-6.811 8.943-9.08 5.128-2.268 8.301-2.142 9.628.865" stroke="#f39c14" stroke-width="2"/><path d="m20.449 10.318c.77 1.745-1.017 4.225-3.992 5.54-2.975 1.316-6.01.969-6.781-.776-.77-1.744 1.017-4.224 3.992-5.54 2.975-1.316 6.01-.969 6.781.776" fill="#1d1c1b"/><path d="m20.857 8.951c0 1.087-.88 1.968-1.967 1.968-1.085 0-1.967-.881-1.967-1.968 0-1.087.881-1.968 1.967-1.968 1.086 0 1.967.881 1.967 1.968" fill="#fefefe"/><path d="m6.696 18.11c-.296 5.447-6.04-3.279-6.04-3.279l2.968-1.987 21.873-12.589 3.229 2.047c0 0-3.05 1.229-7.291 3.868l-14.737 11.941" fill="#1d1c1b"/></g><g fill="#d9d9d9"><path d="m66.92 80.02c0 0 12.142.518 15.327 1.936l-1.972-2.816-2.645-2.079-10.711 2.959"/><path d="m77.52 104.06c0 0 23.15 9.846 30.839 20.19l-3.26 4.511c0 0-8.05-17.496-27.579-24.701"/><path d="m148.15 50.859c0 0-20.28-13.36-31.824-9.749 0 0 9.609-5.502 33.13 5.632l-1.307 4.116"/><path d="m94.73 27.832c0 0-16.04 5.646-23.05 13.06 0 0 9.742-10.437 24.926-15.285l-1.873 2.228"/><path d="m92.49 81.37c1.021-.749.373.276 4.196-2.02 4.128-2.48 12.869-8.308 17.657-9.696 0 0-14.402 5.209-16.12 7.203l-5.732 4.513"/><path d="m116.13 118.24c-.896-.812-.409.173-3.839-2.436-3.706-2.817-11.466-9.277-15.981-11.273 0 0 19.05 9.771 20.447 11.765l-.627 1.945"/><path d="m91.43 142.98c-.063-1.208-.411-.166-1-4.437-.642-4.612-1.591-14.67-3.385-19.272 0 0 6.617 20.371 6.205 22.773l-1.815.936"/></g><path d="m116.86 88.24c.361-.048 9.05-1.915 9.428-1.96 0 0-26.08 1.207-38.22 2.849-12.142 1.642-28.866-7.657-28.866-7.657l-4.338-1.459-9.414 3.223-10.997 14.734.242 19.322 3.879-4.587 14.395-8.645 25.286.321c0 0-5.6-.83-6.58-1.955l45.18-14.186" fill="#f1c40f"/><path d="m53.602 77.47c.041-.762.132-1.755.33-2.836.019-.11.043-.217.065-.325.037-.187.076-.374.12-.564.014-.054.028-.108.041-.162.273-1.133.674-2.308 1.259-3.385.038-.075.063-.123.063-.123 0 0-2.098 7.863 2.189 8.01 3.318.112-.025.583-1.705.79 1.669.405 3.384.101 3.384.101 0 0-.934.484-3.485.256.326 1.232.607 2.074.607 2.074-1.066-.587-1.738-1.383-2.15-2.275-.111-.018-.225-.038-.34-.059h-.401c0 0-.001-.026-.002-.076-.403-.079-.831-.172-1.285-.281-5.296-1.275 2.862-10.606 2.862-10.606-2.81 5.188-2.697 7.979-1.55 9.462" fill="#d9d9d9"/><path d="m53.57 84.62c0 0 3.333 3.552 11.135 4.875l-3.912.187-7.223-2.173v-2.89" fill="#f39c14"/><path d="m71.68 2.731c0 0-72.801 30.409-52.736 72.78l-10.337-25.487-6.347-25.14v-7.87l20.496-6.03 32.17-7.279 27.323-2.779-10.567 1.808" fill="#4dbab6"/><g fill="#1d1c1b"><path d="m157.57 15.749c-18.76-6.136-38.15-11.21-57.654-14.239-25.821-4.01-50.663.879-75.66 7.506-7.743 2.053-15.469 4.241-23.08 6.732-.597.195-1.252.831-1.165 1.531 1.426 11.382 4.468 22.685 7.923 33.591 6.094 19.235 14.48 37.873 25.419 54.856l.875-4.503c-13.876-22.23-23.485-47.31-28.979-72.7-.659-3.045-1.482-7.257-1.909-10.132 17.69-5.728 35.911-10.462 54.25-13.486 12.43-2.05 24.591-2.601 37.1-.966 13.359 1.746 26.555 4.833 39.562 8.299 7.096 1.891 14.173 3.904 21.17 6.155-4.385 33.1-19.625 68.59-39.677 95.8-10.21 13.854-22.433 26.14-36.37 36.24-14.934-10.828-27.698-24.13-38.35-39.04l-1.711 1.911-.426.555c1.149 1.602 2.315 3.192 3.513 4.758 10.261 13.401 22.321 25.21 36.04 35.05.257.25.585.401.947.391.359.01.682-.14.937-.385 40.727-29.2 65.925-76.24 76.31-124.61.836-3.895 1.615-7.823 2.11-11.779.089-.704-.56-1.333-1.165-1.531"/><path d="m150.62 47.31c0 0-11.308-5.769-14.217-4.446 0 0 13.345 5.544 12.975 8.462-.369 2.919 1.242-4.02 1.242-4.02"/><path d="m94.62 27.93c0 0 28.811-11.453 60.08-1.096l1.025-3.349c-25.12-8.323-49.31-2.093-57.849.677l.12-.699c.492-2.993 1.858-5.984 3.109-8.647.658-1.402-.705-2.978-2.172-2.174-16.11 8.841-32.13 19.422-43.848 33.82-5.105 6.271-10.117 13.839-11.358 22.02-.93 6.135 2.236 9.572 6.775 11.361-1.837.884-3.609 1.871-5.268 2.976-12.423 8.285-15.346 21.948-11.732 35.906.321 1.236 2.317 1.654 2.901.379 2.029-4.432 6.14-8.108 10.418-11.06 12.794-3.317 27.655.728 33.817 13.149 4.905 9.889 4.585 22.385-2.294 30.09l.149.284 1.095.667c1.435-1.079 2.84-2.174 4.225-3.278 4.369-8.07 4.281-18.677.288-27.792-3.927-8.962-11.701-14.417-20.54-16.452 16.16-.744 32.407 5.438 41.944 19.246.609.883 1.227 1.749 1.851 2.599.698-.791 1.385-1.585 2.064-2.381-2.507-3.374-4.939-6.934-7.835-9.693-8.92-8.493-20.798-12.59-32.982-12.871-3.981-.091-8.11.148-12.174.774 21.777-11.03 47.979-12.944 71.87-13.02.791-.002 1.678-.728 1.587-1.588-.379-3.586-.896-9.493-4.867-10.884.611.082 1.525 9.306 1.525 9.306-25.37.181-53.05 2.652-75.49 15.469-5.192 2.966-11.464 7.084-15.291 12.316-1.976-12.11 1.795-23.15 13.15-29.704 2.085-1.205 4.341-2.246 6.673-3.132 3.352.505 6.888.473 9.861.184 3.708-.361 7.319-1.593 10.784-3.124 3.286 3.669 8.966 5.357 14.704 3.879 7.784-2.01 12.698-9.06 10.975-15.76-.156-.605-.378-1.174-.63-1.726 1.126-.639 2.248-1.285 3.382-1.909 7.329-4.04 15.572-8.823 24.13-9.302 6.331-.355 12.935.602 19.287 1.935.349-1.028.682-2.037 1.01-3.036-9.882-2.106-20.378-3.34-29.912.037-10.701 3.789-20.362 9.97-30.21 15.641 4.779-1.672 9.366-.93 10.462 1.793 1.155 2.869-2 6.846-7.05 8.882-5.05 2.035-10.08 1.359-11.231-1.51-.77-1.912.382-4.313 2.725-6.307-.985.536-1.972 1.065-2.966 1.579-5.969 3.082-12.11 5.943-18.943 5.827-5.622-.095-15.601-.128-15.263-7.946.296-6.855 4.786-13.806 8.713-19.1 10.564-14.246 25.662-24.755 40.985-33.477-.963 2.465-1.696 5.03-1.768 7.605v2.618"/><path d="m53.58 84.62c0 0-1.736-.642-1.744 1.488-.01 2.129 9.09 3.606 9.09 3.606l-7.347-5.094"/></g></g></svg>