<svg viewBox="0 0 81 19" xmlns="http://www.w3.org/2000/svg"><g fill="none" fill-rule="evenodd"><path d="m111.81 60.18c-1.576 0-2.778-.462-3.608-1.387-.83-.924-1.294-2.187-1.392-3.789l2.5-.625c.124 2.5.957 3.75 2.5 3.75 1.25 0 1.875-.625 1.875-1.875 0-.371-.05-.715-.151-1.03-.101-.316-.256-.605-.464-.869-.208-.264-.397-.475-.566-.635-.169-.16-.4-.356-.693-.591l-3.125-2.5c-.573-.449-1.03-1.021-1.372-1.714-.342-.693-.513-1.483-.513-2.368 0-1.289.4-2.314 1.201-3.076.801-.762 1.862-1.143 3.184-1.143 1.419 0 2.547.347 3.384 1.04.837.693 1.353 1.675 1.548 2.944.02.137.042.326.068.566l-2.5.625c-.007-.111-.023-.277-.049-.498-.111-.794-.36-1.431-.747-1.909-.387-.479-.955-.718-1.704-.718-.599 0-1.061.168-1.387.503-.326.335-.488.802-.488 1.401 0 .983.417 1.807 1.25 2.471l3.125 2.5c1.667 1.348 2.5 2.959 2.5 4.834 0 1.283-.396 2.285-1.187 3.01-.791.723-1.854 1.084-3.188 1.084m9.629 0c-.605 0-1.131-.104-1.577-.313-.446-.208-.801-.48-1.064-.815-.264-.335-.477-.765-.64-1.289-.163-.524-.275-1.048-.337-1.572-.062-.524-.099-1.134-.112-1.831-.02-.547-.02-1.094 0-1.641.02-.651.063-1.229.132-1.733.068-.505.187-.994.356-1.47.169-.475.389-.866.659-1.172.27-.306.625-.552 1.064-.737.439-.186.952-.278 1.538-.278.534 0 1 .07 1.411.21.407.14.745.352 1.016.635.27.283.495.597.674.942.179.345.314.763.405 1.255.091.492.155.975.19 1.45.036.475.054 1.022.054 1.641v.293h-5v.625.4c-.013.241-.015.49-.005.747.01.257.021.509.034.757.013.247.049.483.107.708.059.225.13.422.215.591.085.169.203.303.356.4.153.098.334.146.542.146.26 0 .475-.05.645-.151.169-.101.295-.252.376-.454.081-.202.138-.404.171-.605.033-.202.052-.456.059-.762v-.527h2.48v.498c-.059 1.335-.387 2.344-.986 3.03-.599.684-1.52 1.025-2.764 1.025m-1.23-7.676h2.48v-.752c-.007-.332-.026-.622-.059-.869-.033-.247-.09-.495-.171-.742-.081-.247-.207-.436-.376-.566-.169-.13-.378-.195-.625-.195-.254 0-.467.068-.64.205-.173.137-.299.334-.381.591-.081.257-.138.509-.171.757-.033.247-.052.544-.059.889v.684m9.932 7.676c-.605 0-1.131-.101-1.577-.303-.446-.202-.802-.465-1.069-.791-.267-.326-.482-.741-.645-1.245-.163-.505-.275-1.01-.337-1.514-.062-.505-.099-1.092-.112-1.763-.02-.54-.02-1.084 0-1.631.013-.664.05-1.25.112-1.758.062-.508.176-1.014.342-1.519.166-.505.381-.918.645-1.24.264-.322.618-.584 1.064-.786.446-.202.972-.303 1.577-.303 1.315 0 2.259.355 2.832 1.064.573.71.879 1.761.918 3.154v.332h-2.5v-.352c-.007-.313-.028-.586-.063-.82-.036-.234-.094-.469-.176-.703-.081-.234-.208-.415-.381-.542-.173-.127-.382-.19-.63-.19-.247 0-.456.073-.625.22-.169.146-.298.356-.386.63-.088.273-.151.555-.19.845-.039.29-.062.623-.068 1-.026.807-.026 2.025 0 3.652.013.358.039.672.078.942.039.27.103.531.19.781.088.251.216.444.386.581.169.137.374.205.615.205.221 0 .412-.042.571-.127.16-.085.282-.189.366-.313.085-.124.151-.29.2-.498.049-.208.08-.402.093-.581.013-.179.02-.405.02-.679v-.303h2.5v.322c-.02.658-.101 1.239-.244 1.743-.143.505-.36.946-.649 1.323-.29.378-.674.666-1.152.864-.479.199-1.047.298-1.704.298m7.09 0c-.547 0-.986-.194-1.318-.581-.332-.387-.498-.868-.498-1.44v-10.654h2.5v9.893c0 .26.08.472.239.635.16.163.366.244.62.244.137 0 .27-.016.4-.049.13-.033.259-.09.386-.171.127-.081.226-.146.298-.195.072-.049.174-.132.308-.249.133-.117.216-.189.249-.215v-9.893h2.5v12.5h-2.5v-1.348c-.247.215-.428.371-.542.469-.114.098-.288.229-.522.396-.234.166-.441.286-.62.361-.179.075-.402.143-.669.205-.267.062-.544.093-.83.093m10.459-10.176h.625c.566 0 1.03-.033 1.392-.098.361-.065.68-.187.957-.366.277-.179.475-.435.596-.767.12-.332.181-.755.181-1.27 0-.625-.046-1.131-.137-1.519-.091-.387-.259-.705-.503-.952-.244-.247-.56-.418-.947-.513-.387-.094-.9-.142-1.538-.142h-.625v5.625m-2.5 10v-17.5h4.375c2.917 0 4.375 1.667 4.375 5 0 1.426-.376 2.511-1.128 3.257-.752.745-1.834 1.118-3.247 1.118h-1.875v8.125h-2.5m10.06 0v-12.5h2.5v1.67c.254-.495.623-.926 1.108-1.294.485-.368 1.024-.552 1.616-.552.02 0 .153.013.4.039v2.764c-.462-.182-.924-.273-1.387-.273-.521 0-.941.156-1.26.469-.319.313-.479.726-.479 1.24v8.438h-2.5m10.303.176c-.605 0-1.131-.104-1.577-.313-.446-.208-.801-.48-1.064-.815-.264-.335-.477-.765-.64-1.289-.163-.524-.275-1.048-.337-1.572-.062-.524-.099-1.134-.112-1.831-.02-.547-.02-1.094 0-1.641.02-.651.063-1.229.132-1.733.068-.505.187-.994.356-1.47.169-.475.389-.866.659-1.172.27-.306.625-.552 1.064-.737.439-.186.952-.278 1.538-.278.534 0 1 .07 1.411.21.407.14.745.352 1.016.635.27.283.495.597.674.942.179.345.314.763.405 1.255.091.492.155.975.19 1.45.036.475.054 1.022.054 1.641v.293h-5v.625.4c-.013.241-.015.49-.005.747.01.257.021.509.034.757.013.247.049.483.107.708.059.225.13.422.215.591.085.169.203.303.356.4.153.098.334.146.542.146.26 0 .475-.05.645-.151.169-.101.295-.252.376-.454.081-.202.138-.404.171-.605.033-.202.052-.456.059-.762v-.527h2.48v.498c-.059 1.335-.387 2.344-.986 3.03-.599.684-1.52 1.025-2.764 1.025m-1.23-7.676h2.48v-.752c-.007-.332-.026-.622-.059-.869-.033-.247-.09-.495-.171-.742-.081-.247-.207-.436-.376-.566-.169-.13-.378-.195-.625-.195-.254 0-.467.068-.64.205-.173.137-.299.334-.381.591-.081.257-.138.509-.171.757-.033.247-.052.544-.059.889v.684m10.09 7.676c-1.029 0-1.854-.306-2.476-.918-.622-.612-1.047-1.406-1.274-2.383l1.875-.625c.449 1.25 1.074 1.875 1.875 1.875.397 0 .705-.109.923-.327.218-.218.327-.526.327-.923 0-.579-.208-1.061-.625-1.445l-2.5-1.875c-.28-.189-.514-.366-.703-.532-.189-.166-.381-.369-.576-.61-.195-.241-.343-.511-.444-.811-.101-.299-.151-.625-.151-.977 0-1.068.34-1.885 1.021-2.451.68-.566 1.59-.85 2.729-.85.54 0 1.029.086 1.465.259.436.173.802.415 1.099.728.296.313.54.659.732 1.04.192.381.343.806.454 1.274l-1.875.625c-.091-.247-.182-.461-.273-.64-.091-.179-.213-.373-.366-.581-.153-.208-.334-.369-.542-.483-.208-.114-.439-.171-.693-.171-.397 0-.705.109-.923.327-.218.218-.327.526-.327.923 0 .391.208.742.625 1.055l2.5 1.875c.28.221.519.435.718.64.199.205.392.443.581.713.189.27.332.571.43.903.098.332.146.687.146 1.064 0 1.068-.34 1.885-1.021 2.451-.68.566-1.59.85-2.729.85m8.555 0c-1.029 0-1.854-.306-2.476-.918-.622-.612-1.047-1.406-1.274-2.383l1.875-.625c.449 1.25 1.074 1.875 1.875 1.875.397 0 .705-.109.923-.327.218-.218.327-.526.327-.923 0-.579-.208-1.061-.625-1.445l-2.5-1.875c-.28-.189-.514-.366-.703-.532-.189-.166-.381-.369-.576-.61-.195-.241-.343-.511-.444-.811-.101-.299-.151-.625-.151-.977 0-1.068.34-1.885 1.021-2.451.68-.566 1.59-.85 2.729-.85.54 0 1.029.086 1.465.259.436.173.802.415 1.099.728.296.313.54.659.732 1.04.192.381.343.806.454 1.274l-1.875.625c-.091-.247-.182-.461-.273-.64-.091-.179-.213-.373-.366-.581-.153-.208-.334-.369-.542-.483-.208-.114-.439-.171-.693-.171-.397 0-.705.109-.923.327-.218.218-.327.526-.327.923 0 .391.208.742.625 1.055l2.5 1.875c.28.221.519.435.718.64.199.205.392.443.581.713.189.27.332.571.43.903.098.332.146.687.146 1.064 0 1.068-.34 1.885-1.021 2.451-.68.566-1.59.85-2.729.85" transform="translate(-106-42)" fill="#ecf0f1"/></g></svg>